<svg width="10" height="8" viewBox="0 0 10 8" fill="none" xmlns="http://www.w3.org/2000/svg">
<g clip-path="url(#clip0_164_452)">
<path d="M6 1V0H10V1H6ZM6 3V2H10V3H6ZM6 5V4H10V5H6ZM3 4.5C2.58333 4.5 2.22917 4.35417 1.9375 4.0625C1.64583 3.77083 1.5 3.41667 1.5 3C1.5 2.58333 1.64583 2.22917 1.9375 1.9375C2.22917 1.64583 2.58333 1.5 3 1.5C3.41667 1.5 3.77083 1.64583 4.0625 1.9375C4.35417 2.22917 4.5 2.58333 4.5 3C4.5 3.41667 4.35417 3.77083 4.0625 4.0625C3.77083 4.35417 3.41667 4.5 3 4.5ZM0 7.5V6.55C0 6.375 0.0416667 6.20833 0.125 6.05C0.208333 5.89167 0.325 5.76667 0.475 5.675C0.85 5.45 1.248 5.28133 1.669 5.169C2.09 5.05667 2.53367 5.00033 3 5C3.46633 4.99967 3.91017 5.056 4.3315 5.169C4.75283 5.282 5.15067 5.45067 5.525 5.675C5.675 5.76667 5.79167 5.89167 5.875 6.05C5.95833 6.20833 6 6.375 6 6.55V7.5H0Z" fill="black"/>
</g>
<defs>
<clipPath id="clip0_164_452">
<rect width="10" height="7.5" fill="white"/>
</clipPath>
</defs>
</svg>
